# xmcd
#
# Track frame offsets: 
#        150
#        8251
#        26844
#        39061
#        50265
#        68115
#        82636
#        98146
#        116293
#        132102
#        145322
#        155302
#        170410
#        185785
#        202445
#        219506
#
# Disc length: 3155 seconds
#
# Revision: 1
# Processed by: cddbd v1.5.2PL0 Copyright (c) Steve Scherf et al.
# Submitted via: ExactAudioCopyFreeDBPlugin 1.0
#
DISCID=cc0c5110
DTITLE=Martina McBride - White Christmas
DYEAR=2007
DGENRE=Country
TTITLE0=Let It Snow, Let It Snow, Let It Snow
TTITLE1=Have Yourself A Merry Little Christmas
TTITLE2=Silver Bells
TTITLE3=Hark! The Herald Angels Sing
TTITLE4=Do You Hear What I Hear
TTITLE5=I'll Be Home For Christmas
TTITLE6=Winter Wonderland
TTITLE7=O Come All Ye Faithful
TTITLE8=Away In A Manger
TTITLE9=Baby, It's Cold Outside (with Dean Martin)\\n
TTITLE10=Jingle Bells
TTITLE11=White Christmas
TTITLE12=Silent Night
TTITLE13=The Christmas Song (Chestnuts Roasting On An Open Fire)
TTITLE14=What Child Is This
TTITLE15=O Holy Night
EXTD=
EXTT0=
EXTT1=
EXTT2=
EXTT3=
EXTT4=
EXTT5=
EXTT6=
EXTT7=
EXTT8=
EXTT9=
EXTT10=
EXTT11=
EXTT12=
EXTT13=
EXTT14=
EXTT15=
PLAYORDER=
